HIERARCHY
ROOT Hips
{
	OFFSET 0.000000 0.000000 0.000000
	CHANNELS 6 Xposition Yposition Zposition Zrotation Yrotation Xrotation 
	JOINT LHipJoint
	{
		OFFSET 0.000000 0.000000 0.000000
		CHANNELS 3 Zrotation Yrotation Xrotation
		JOINT LeftUpLeg
		{
			OFFSET 1.363060 -1.794630 0.839290
			CHANNELS 3 Zrotation Yrotation Xrotation
			JOINT LeftLeg
			{
				OFFSET 2.448110 -6.726130 0.000000
				CHANNELS 3 Zrotation Yrotation Xrotation
				JOINT LeftFoot
				{
					OFFSET 2.562200 -7.039590 0.000000
					CHANNELS 3 Zrotation Yrotation Xrotation
					JOINT LeftToeBase
					{
						OFFSET 0.157640 -0.433110 2.322550
						CHANNELS 3 Zrotation Yrotation Xrotation
						End Site
						{
							OFFSET 0.000000 0.000000 0.000000
						}
					}
				}
			}
		}
	}
	JOINT RHipJoint
	{
		OFFSET 0.000000 0.000000 0.000000
		CHANNELS 3 Zrotation Yrotation Xrotation
		JOINT RightUpLeg
		{
			OFFSET -1.305520 -1.794630 0.839290
			CHANNELS 3 Zrotation Yrotation Xrotation
			JOINT RightLeg
			{
				OFFSET -2.542530 -6.985550 0.000000
				CHANNELS 3 Zrotation Yrotation Xrotation
				JOINT RightFoot
				{
					OFFSET -2.568260 -7.056230 0.000000
					CHANNELS 3 Zrotation Yrotation Xrotation
					JOINT RightToeBase
					{
						OFFSET -0.164730 -0.452590 2.363150
						CHANNELS 3 Zrotation Yrotation Xrotation
						End Site
						{
							OFFSET 0.000000 0.000000 0.000000
						}
					}
				}
			}
		}
	}
	JOINT LowerBack
	{
		OFFSET 0.000000 0.000000 0.000000
		CHANNELS 3 Zrotation Yrotation Xrotation
		JOINT Spine
		{
			OFFSET 0.028270 2.035590 -0.193380
			CHANNELS 3 Zrotation Yrotation Xrotation
			JOINT Spine1
			{
				OFFSET 0.056720 2.048850 -0.042750
				CHANNELS 3 Zrotation Yrotation Xrotation
				JOINT Neck
				{
					OFFSET 0.000000 0.000000 0.000000
					CHANNELS 3 Zrotation Yrotation Xrotation
					JOINT Neck1
					{
						OFFSET -0.054170 1.746240 0.172020
						CHANNELS 3 Zrotation Yrotation Xrotation
						JOINT Head
						{
							OFFSET 0.104070 1.761360 -0.123970
							CHANNELS 3 Zrotation Yrotation Xrotation
							End Site
							{
								OFFSET 0.000000 0.000000 0.000000
							}
						}
					}
				}
				JOINT LeftShoulder
				{
					OFFSET 0.000000 0.000000 0.000000
					CHANNELS 3 Zrotation Yrotation Xrotation
					JOINT LeftArm
					{
						OFFSET 3.362410 1.200890 -0.311210
						CHANNELS 3 Zrotation Yrotation Xrotation
						JOINT LeftForeArm
						{
							OFFSET 4.983000 -0.000000 -0.000000
							CHANNELS 3 Zrotation Yrotation Xrotation
							JOINT LeftHand
							{
								OFFSET 3.483560 -0.000000 -0.000000
								CHANNELS 3 Zrotation Yrotation Xrotation
								JOINT LeftFingerBase
								{
									OFFSET 0.000000 0.000000 0.000000
									CHANNELS 3 Zrotation Yrotation Xrotation
									JOINT LeftHandIndex1
									{
										OFFSET 0.715260 -0.000000 -0.000000
										CHANNELS 3 Zrotation Yrotation Xrotation
										End Site
										{
											OFFSET 0.000000 0.000000 0.000000
										}
									}
								}
								JOINT LThumb
								{
									OFFSET 0.000000 0.000000 0.000000
									CHANNELS 3 Zrotation Yrotation Xrotation
									End Site
									{
										OFFSET 0.000000 0.000000 0.000000
									}
								}
							}
						}
					}
				}
				JOINT RightShoulder
				{
					OFFSET 0.000000 0.000000 0.000000
					CHANNELS 3 Zrotation Yrotation Xrotation
					JOINT RightArm
					{
						OFFSET -3.136600 1.374050 -0.404650
						CHANNELS 3 Zrotation Yrotation Xrotation
						JOINT RightForeArm
						{
							OFFSET -5.241900 -0.000000 -0.000000
							CHANNELS 3 Zrotation Yrotation Xrotation
							JOINT RightHand
							{
								OFFSET -3.444170 -0.000000 -0.000000
								CHANNELS 3 Zrotation Yrotation Xrotation
								JOINT RightFingerBase
								{
									OFFSET 0.000000 0.000000 0.000000
									CHANNELS 3 Zrotation Yrotation Xrotation
									JOINT RightHandIndex1
									{
										OFFSET -0.622530 -0.000000 -0.000000
										CHANNELS 3 Zrotation Yrotation Xrotation
										End Site
										{
											OFFSET 0.000000 0.000000 0.000000
										}
									}
								}
								JOINT RThumb
								{
									OFFSET 0.000000 0.000000 0.000000
									CHANNELS 3 Zrotation Yrotation Xrotation
									End Site
									{
										OFFSET 0.000000 0.000000 0.000000
									}
								}
							}
						}
					}
				}
			}
		}
	}
}
MOTION
Frames: 8
Frame Time: 0.008333
-11.563316 17.764877 -1.140394 -165.520386 85.896562 -144.096204 -13.221419 6.207257 2.916850 -3.963844 14.532815 -2.208463 -1.942159 0.124531 -1.215589 0.284517 -7.121652 27.245698 -3.875200 0.000000 -65.306200 7.689573 -1.723986 6.880656 8.290218 9.639946 -41.393353 2.191457 -0.706728 27.248337 -1.072799 -2.544764 -8.472930 -0.326500 -0.000000 -38.371900 4.671291 -6.398897 -11.672266 1.717989 -6.978969 -5.082826 -3.139103 -7.240899 0.455586 7.221250 -23.293449 -9.744419 -2.202127 -0.150872 -0.418147 0.000000 0.000000 0.000000 10.750737 0.886623 -3.260404 -81.746389 -18.937082 26.796751 179.719563 -63.368784 179.795512 20.273151 -23.577704 -4.691810 -0.633632 1.564887 -0.000000 0.000000 0.000000 0.000000 0.000000 0.000000 0.000000 2.239363 -22.065720 -0.924680 58.520168 -11.943677 20.763072 179.700690 74.754753 179.941077 -16.067318 27.501734 -4.136024 0.264501 -0.772079 0.000000 0.000000 0.000000 0.000000 0.000000 0.000000 0.000000 
-11.304681 17.814817 -1.127898 -161.112768 85.947247 -139.833746 -13.546615 6.312688 2.395861 -2.967460 17.708830 -1.789653 -2.033283 0.149263 -1.539889 0.381024 -8.171105 29.035914 -4.672500 0.000000 -62.842500 7.360796 -1.964813 7.354213 8.886888 10.611872 -40.736183 2.568549 -0.327570 23.141568 -0.869673 -2.027297 -7.054391 -0.457400 -0.000000 -39.655900 4.934124 -6.628577 -11.646944 1.858745 -7.244027 -5.105130 -2.982424 -7.533545 0.430376 7.320324 -23.779486 -9.867049 -2.135623 -0.143793 -0.449675 0.000000 0.000000 0.000000 11.154610 0.445959 -3.301831 -82.506720 -18.224139 27.320844 179.589973 -63.144373 179.795993 19.911357 -23.263615 -4.545905 -0.621245 1.561354 -0.000000 0.000000 0.000000 0.000000 0.000000 0.000000 0.000000 2.071587 -22.662049 -0.917809 57.614445 -11.583406 20.596725 179.665509 73.938696 179.942815 -15.834711 27.530715 -4.083154 0.267806 -0.782867 0.000000 0.000000 0.000000 0.000000 0.000000 0.000000 0.000000 
-11.049261 17.853435 -1.111622 -157.419844 85.978087 -136.325143 -13.785942 6.399471 1.884661 -1.981558 20.597085 -1.324250 -2.115217 0.168562 -1.495129 0.468302 -8.593494 30.144089 -5.067200 0.000000 -59.898800 7.111300 -2.156192 7.768867 9.415905 11.416484 -40.074358 2.897856 0.032390 19.401194 -0.684554 -1.664137 -5.571274 -0.582200 -0.000000 -40.952400 5.108031 -6.858729 -11.558102 1.974001 -7.500273 -5.114233 -2.851001 -7.814478 0.381616 7.479406 -24.237377 -9.980325 -2.084508 -0.138078 -0.478637 0.000000 0.000000 0.000000 11.582815 -0.068600 -3.348522 -83.241905 -17.421130 27.731769 179.447798 -62.919047 179.795869 19.560325 -22.887332 -4.392103 -0.607181 1.554048 -0.000000 0.000000 0.000000 0.000000 0.000000 0.000000 0.000000 2.020833 -23.224526 -0.906583 56.758043 -11.192179 20.414169 179.624908 73.114670 179.944805 -15.611441 27.610782 -4.040364 0.271716 -0.795065 0.000000 0.000000 0.000000 0.000000 0.000000 0.000000 0.000000 
-10.796932 17.880839 -1.091874 -154.263973 86.000073 -133.385881 -13.947368 6.470378 1.415244 -0.998432 23.054903 -0.785218 -2.167165 0.188710 -1.120424 0.539612 -8.333952 30.604109 -4.998700 -0.000000 -56.619000 6.929303 -2.302125 8.103720 9.931478 12.041672 -39.439019 3.171076 0.351115 16.138228 -0.525524 -1.458727 -4.053988 -0.706800 -0.000000 -42.191400 5.208067 -7.083273 -11.417226 2.064202 -7.742293 -5.108915 -2.749399 -8.077254 0.324663 7.699743 -24.659249 -10.089118 -2.047781 -0.133583 -0.506435 0.000000 0.000000 0.000000 11.997576 -0.573293 -3.392240 -83.942381 -16.614746 28.093261 179.306438 -62.747653 179.795321 19.274128 -22.470037 -4.247363 -0.594257 1.543028 -0.000000 0.000000 0.000000 0.000000 0.000000 0.000000 0.000000 2.098381 -23.746847 -0.902301 55.944633 -10.777613 20.230574 179.579877 72.291897 179.946974 -15.414891 27.727788 -4.009958 0.276435 -0.808248 0.000000 0.000000 0.000000 0.000000 0.000000 0.000000 0.000000 
-10.547690 17.897319 -1.069201 -151.464757 86.021665 -130.824110 -14.037002 6.525066 1.024114 -0.049040 24.903892 -0.139334 -2.164610 0.213591 -0.495400 0.596348 -7.353426 30.506468 -4.455300 0.000000 -53.194500 6.799642 -2.411719 8.342152 10.476944 12.488144 -38.848938 3.388043 0.609695 13.420800 -0.395302 -1.398775 -2.516641 -0.837700 0.000000 -43.402000 5.251309 -7.298293 -11.241287 2.132137 -7.967177 -5.093523 -2.675348 -8.318895 0.258060 7.965767 -25.042197 -10.184125 -2.025599 -0.130513 -0.530353 0.000000 0.000000 0.000000 12.383648 -1.083775 -3.432006 -84.600577 -15.779806 28.387385 179.163912 -62.624681 179.794505 19.039098 -22.033522 -4.112381 -0.581836 1.528950 -0.000000 0.000000 0.000000 0.000000 0.000000 0.000000 0.000000 2.281859 -24.224216 -0.902747 55.191111 -10.339119 20.052831 179.529690 71.497995 179.949404 -15.220449 27.875197 -3.984139 0.281407 -0.821967 0.000000 0.000000 0.000000 0.000000 0.000000 0.000000 0.000000 
-10.301359 17.903202 -1.044076 -148.915022 86.046739 -128.518940 -14.060235 6.561841 0.742357 0.806039 25.994873 0.619025 -2.087417 0.245170 0.314602 0.646793 -5.690581 29.960811 -3.496600 -0.000000 -49.826300 6.708232 -2.494672 8.475427 11.077101 12.765428 -38.313666 3.552737 0.796066 11.282929 -0.294430 -1.464540 -0.980704 -0.979100 0.000000 -44.567800 5.251090 -7.500650 -11.049638 2.180081 -8.172974 -5.071752 -2.627513 -8.537362 0.186281 8.264093 -25.385166 -10.261696 -2.016643 -0.128842 -0.549368 0.000000 0.000000 0.000000 12.721306 -1.586984 -3.465292 -85.208837 -14.922148 28.619361 179.023183 -62.561212 179.793589 18.854524 -21.601460 -3.990643 -0.570029 1.512483 -0.000000 0.000000 0.000000 0.000000 0.000000 0.000000 0.000000 2.552065 -24.655648 -0.909108 54.514191 -9.872896 19.890360 179.474869 70.757052 179.952116 -15.014451 28.037211 -3.956716 0.286210 -0.835656 0.000000 0.000000 0.000000 0.000000 0.000000 0.000000 0.000000 
-10.057848 17.898878 -1.016873 -146.586631 86.078674 -126.433286 -14.024218 6.578421 0.584942 1.497571 26.261750 1.457892 -1.926970 0.284619 1.295179 0.704386 -3.481536 29.070966 -2.245299 -0.000000 -46.675000 6.643819 -2.559393 8.504289 11.734801 12.889474 -37.832796 3.670152 0.905883 9.725446 -0.221485 -1.630929 0.528227 -1.132401 0.000000 -45.649600 5.214617 -7.689142 -10.857725 2.209546 -8.359238 -5.046723 -2.603960 -8.732268 0.112874 8.580354 -25.688833 -10.318526 -2.019291 -0.128502 -0.562565 0.000000 0.000000 0.000000 12.996710 -2.077543 -3.491029 -85.759259 -14.040730 28.788218 178.885847 -62.562108 179.792704 18.711792 -21.192113 -3.883043 -0.558542 1.494242 -0.000000 0.000000 0.000000 0.000000 0.000000 0.000000 0.000000 2.886891 -25.042108 -0.921435 53.935089 -9.372925 19.751712 179.416344 70.093775 179.955087 -14.782670 28.196169 -3.921294 0.290378 -0.848703 0.000000 0.000000 0.000000 0.000000 0.000000 0.000000 0.000000 
-9.816919 17.884607 -0.987810 -144.557813 86.128960 -124.640614 -13.934335 6.575543 0.556758 1.946164 25.676431 2.350443 -1.684206 0.332832 2.432498 0.786631 -0.870898 27.963369 -0.824400 0.000000 -43.926200 6.600529 -2.610159 8.432771 12.428662 12.871876 -37.400377 3.743876 0.940147 8.734184 -0.172077 -1.857027 1.968403 -1.291100 -0.000000 -46.566501 5.137900 -7.863963 -10.676252 2.219799 -8.525882 -5.019483 -2.603236 -8.903399 0.044092 8.902977 -25.955199 -10.355403 -2.031205 -0.129278 -0.570231 0.000000 0.000000 0.000000 13.196861 -2.538074 -3.508195 -86.242913 -13.144852 28.900782 178.755861 -62.638538 179.792001 18.603375 -20.825908 -3.791181 -0.547192 1.474894 -0.000000 0.000000 0.000000 0.000000 0.000000 0.000000 0.000000 3.268111 -25.386365 -0.941062 53.475429 -8.830278 19.645099 179.355644 69.527010 179.958244 -14.518023 28.332091 -3.872776 0.293583 -0.860529 0.000000 0.000000 0.000000 0.000000 0.000000 0.000000 0.000000 
